<mxfile host="Electron" agent="Mozilla/5.0 (X11; Linux x86_64) AppleWebKit/537.36 (KHTML, like Gecko) draw.io/27.0.9 Chrome/134.0.6998.205 Electron/35.4.0 Safari/537.36" version="27.0.9">
  <diagram name="Page-1" id="lW3aPd_w3BEKXG8VRajk">
    <mxGraphModel dx="2188" dy="815" grid="1" gridSize="10" guides="1" tooltips="1" connect="1" arrows="1" fold="1" page="1" pageScale="1" pageWidth="1000" pageHeight="850" math="0" shadow="0">
      <root>
        <mxCell id="0" />
        <mxCell id="1" parent="0" />
        <mxCell id="NRSCf0xzdUJ-CUg3j_1p-8" style="edgeStyle=orthogonalEdgeStyle;rounded=0;orthogonalLoop=1;jettySize=auto;html=1;entryX=0;entryY=0.5;entryDx=0;entryDy=0;entryPerimeter=0;dashed=1;fillColor=#f5f5f5;strokeColor=#666666;" parent="1" target="NRSCf0xzdUJ-CUg3j_1p-7" edge="1">
          <mxGeometry relative="1" as="geometry">
            <Array as="points">
              <mxPoint x="695" y="120" />
              <mxPoint x="695" y="490" />
            </Array>
            <mxPoint x="695" y="120" as="sourcePoint" />
          </mxGeometry>
        </mxCell>
        <mxCell id="zBMR9Xl9BZe3JkmsXcy5-7" value="&lt;font style=&quot;font-size: 18px;&quot;&gt;Worker Services&lt;/font&gt;" style="swimlane;whiteSpace=wrap;html=1;startSize=30;collapsible=0;" parent="1" vertex="1">
          <mxGeometry x="230" y="520" width="440" height="150" as="geometry" />
        </mxCell>
        <mxCell id="zBMR9Xl9BZe3JkmsXcy5-44" style="edgeStyle=orthogonalEdgeStyle;rounded=0;orthogonalLoop=1;jettySize=auto;html=1;fillColor=#f5f5f5;strokeColor=#666666;dashed=1;" parent="zBMR9Xl9BZe3JkmsXcy5-7" edge="1">
          <mxGeometry relative="1" as="geometry">
            <mxPoint x="310" y="60" as="sourcePoint" />
            <mxPoint x="310" y="-100" as="targetPoint" />
            <Array as="points">
              <mxPoint x="310" y="-50" />
              <mxPoint x="310" y="-50" />
            </Array>
          </mxGeometry>
        </mxCell>
        <mxCell id="zBMR9Xl9BZe3JkmsXcy5-46" style="edgeStyle=orthogonalEdgeStyle;rounded=0;orthogonalLoop=1;jettySize=auto;html=1;" parent="1" edge="1">
          <mxGeometry relative="1" as="geometry">
            <mxPoint x="360" y="429.9999999999999" as="sourcePoint" />
            <mxPoint x="360" y="580" as="targetPoint" />
          </mxGeometry>
        </mxCell>
        <mxCell id="zBMR9Xl9BZe3JkmsXcy5-1" value="&lt;font style=&quot;font-size: 18px;&quot;&gt;Moodle&lt;/font&gt;" style="swimlane;whiteSpace=wrap;html=1;startSize=30;swimlaneLine=1;collapsible=0;" parent="1" vertex="1">
          <mxGeometry x="20" y="20" width="650" height="460" as="geometry" />
        </mxCell>
        <mxCell id="NRSCf0xzdUJ-CUg3j_1p-6" style="edgeStyle=orthogonalEdgeStyle;rounded=0;orthogonalLoop=1;jettySize=auto;html=1;" parent="zBMR9Xl9BZe3JkmsXcy5-1" source="zBMR9Xl9BZe3JkmsXcy5-8" target="NRSCf0xzdUJ-CUg3j_1p-1" edge="1">
          <mxGeometry relative="1" as="geometry">
            <Array as="points">
              <mxPoint x="480" y="95" />
              <mxPoint x="480" y="120" />
            </Array>
          </mxGeometry>
        </mxCell>
        <mxCell id="zBMR9Xl9BZe3JkmsXcy5-8" value="&lt;font face=&quot;Courier New&quot; style=&quot;font-size: 12px;&quot;&gt;&amp;lt;&amp;lt; &lt;/font&gt;&lt;font face=&quot;Courier New&quot;&gt;Moodle&lt;/font&gt;&lt;font face=&quot;Courier New&quot; style=&quot;font-size: 12px;&quot;&gt; local Plugin &amp;gt;&amp;gt;&lt;/font&gt;&lt;div style=&quot;&quot;&gt;&lt;span style=&quot;background-color: initial;&quot;&gt;&lt;b&gt;&lt;font style=&quot;font-size: 18px; line-height: 200%;&quot;&gt;Archiving Manager&lt;/font&gt;&lt;/b&gt;&lt;/span&gt;&lt;br&gt;&lt;/div&gt;" style="rounded=0;whiteSpace=wrap;html=1;fillColor=#e1d5e7;strokeColor=#9673a6;spacing=2;strokeWidth=2;fontStyle=0;shadow=1;perimeterSpacing=0;" parent="zBMR9Xl9BZe3JkmsXcy5-1" vertex="1">
          <mxGeometry x="221.25" y="60" width="205" height="70" as="geometry" />
        </mxCell>
        <mxCell id="zBMR9Xl9BZe3JkmsXcy5-9" value="&lt;font face=&quot;Courier New&quot; style=&quot;font-size: 12px;&quot;&gt;&amp;lt;&amp;lt; Activity Archiving Driver &amp;gt;&amp;gt;&lt;/font&gt;&lt;div style=&quot;&quot;&gt;Assignment Archiver&lt;/div&gt;" style="rounded=0;whiteSpace=wrap;html=1;fillColor=#dae8fc;strokeColor=#6c8ebf;spacing=2;shadow=1;" parent="zBMR9Xl9BZe3JkmsXcy5-1" vertex="1">
          <mxGeometry x="23.75" y="230" width="180" height="60" as="geometry" />
        </mxCell>
        <mxCell id="zBMR9Xl9BZe3JkmsXcy5-10" value="&lt;font face=&quot;Courier New&quot; style=&quot;font-size: 12px;&quot;&gt;&amp;lt;&amp;lt;&amp;nbsp;&lt;/font&gt;&lt;span style=&quot;font-family: &amp;quot;Courier New&amp;quot;;&quot;&gt;&lt;font&gt;Activity&lt;/font&gt; Archiving Driver&lt;/span&gt;&lt;font face=&quot;Courier New&quot; style=&quot;font-size: 12px;&quot;&gt;&amp;nbsp;&amp;gt;&amp;gt;&lt;/font&gt;&lt;div style=&quot;&quot;&gt;Quiz Archiver&lt;/div&gt;" style="rounded=0;whiteSpace=wrap;html=1;fillColor=#dae8fc;strokeColor=#6c8ebf;spacing=2;shadow=1;" parent="zBMR9Xl9BZe3JkmsXcy5-1" vertex="1">
          <mxGeometry x="233.75" y="230" width="180" height="60" as="geometry" />
        </mxCell>
        <mxCell id="zBMR9Xl9BZe3JkmsXcy5-19" value="" style="edgeStyle=orthogonalEdgeStyle;rounded=0;orthogonalLoop=1;jettySize=auto;html=1;dashed=1;startArrow=classic;startFill=1;fillColor=#f5f5f5;strokeColor=#666666;endArrow=none;" parent="zBMR9Xl9BZe3JkmsXcy5-1" source="zBMR9Xl9BZe3JkmsXcy5-11" edge="1">
          <mxGeometry relative="1" as="geometry">
            <Array as="points">
              <mxPoint x="534" y="180" />
            </Array>
            <mxPoint x="323" y="180" as="targetPoint" />
          </mxGeometry>
        </mxCell>
        <mxCell id="zBMR9Xl9BZe3JkmsXcy5-28" style="edgeStyle=orthogonalEdgeStyle;rounded=0;orthogonalLoop=1;jettySize=auto;html=1;dashed=1;fillColor=#f5f5f5;strokeColor=#666666;entryX=0.581;entryY=0.033;entryDx=0;entryDy=0;entryPerimeter=0;" parent="zBMR9Xl9BZe3JkmsXcy5-1" target="zBMR9Xl9BZe3JkmsXcy5-14" edge="1">
          <mxGeometry relative="1" as="geometry">
            <mxPoint x="550" y="410" as="sourcePoint" />
            <mxPoint x="550" y="770" as="targetPoint" />
          </mxGeometry>
        </mxCell>
        <mxCell id="zBMR9Xl9BZe3JkmsXcy5-11" value="&lt;font face=&quot;Courier New&quot; style=&quot;font-size: 12px;&quot;&gt;&amp;lt;&amp;lt;&amp;nbsp;&lt;/font&gt;&lt;span style=&quot;font-family: &amp;quot;Courier New&amp;quot;;&quot;&gt;Activity Archiving Driver&lt;/span&gt;&lt;font face=&quot;Courier New&quot; style=&quot;font-size: 12px;&quot;&gt;&amp;nbsp;&amp;gt;&amp;gt;&lt;/font&gt;&lt;div style=&quot;&quot;&gt;Another Archiver&lt;/div&gt;" style="rounded=0;whiteSpace=wrap;html=1;fillColor=#dae8fc;strokeColor=#6c8ebf;spacing=2;dashed=1;opacity=70;textOpacity=70;shadow=0;" parent="zBMR9Xl9BZe3JkmsXcy5-1" vertex="1">
          <mxGeometry x="443.75" y="230" width="180" height="60" as="geometry" />
        </mxCell>
        <mxCell id="zBMR9Xl9BZe3JkmsXcy5-23" style="edgeStyle=orthogonalEdgeStyle;rounded=0;orthogonalLoop=1;jettySize=auto;html=1;" parent="zBMR9Xl9BZe3JkmsXcy5-1" edge="1">
          <mxGeometry relative="1" as="geometry">
            <mxPoint x="323.4185714285715" y="370" as="sourcePoint" />
            <mxPoint x="323.4185714285715" y="290" as="targetPoint" />
            <Array as="points">
              <mxPoint x="323.39000000000004" y="340" />
              <mxPoint x="323.39000000000004" y="340" />
            </Array>
          </mxGeometry>
        </mxCell>
        <mxCell id="zBMR9Xl9BZe3JkmsXcy5-24" style="edgeStyle=orthogonalEdgeStyle;rounded=0;orthogonalLoop=1;jettySize=auto;html=1;fillColor=#f5f5f5;strokeColor=#666666;dashed=1;" parent="zBMR9Xl9BZe3JkmsXcy5-1" edge="1">
          <mxGeometry relative="1" as="geometry">
            <mxPoint x="533.33" y="370" as="sourcePoint" />
            <mxPoint x="533.33" y="290" as="targetPoint" />
            <Array as="points">
              <mxPoint x="533.33" y="340" />
              <mxPoint x="533.33" y="340" />
            </Array>
          </mxGeometry>
        </mxCell>
        <mxCell id="zBMR9Xl9BZe3JkmsXcy5-14" value="&lt;font face=&quot;Courier New&quot; style=&quot;font-size: 12px;&quot;&gt;&amp;lt;&amp;lt; Worker Service &amp;gt;&amp;gt;&lt;/font&gt;&lt;div style=&quot;&quot;&gt;Another Archive Worker&lt;/div&gt;" style="rounded=0;whiteSpace=wrap;html=1;fillColor=#d5e8d4;strokeColor=#82b366;spacing=2;opacity=70;dashed=1;textOpacity=70;" parent="zBMR9Xl9BZe3JkmsXcy5-1" vertex="1">
          <mxGeometry x="445" y="560" width="180" height="60" as="geometry" />
        </mxCell>
        <mxCell id="zBMR9Xl9BZe3JkmsXcy5-13" value="&lt;font face=&quot;Courier New&quot; style=&quot;font-size: 12px;&quot;&gt;&amp;lt;&amp;lt; Worker Service &amp;gt;&amp;gt;&lt;/font&gt;&lt;div style=&quot;&quot;&gt;Quiz Archive Worker&lt;/div&gt;" style="rounded=0;whiteSpace=wrap;html=1;fillColor=#d5e8d4;strokeColor=#82b366;spacing=2;shadow=1;" parent="zBMR9Xl9BZe3JkmsXcy5-1" vertex="1">
          <mxGeometry x="235" y="560" width="180" height="60" as="geometry" />
        </mxCell>
        <mxCell id="zBMR9Xl9BZe3JkmsXcy5-12" value="&lt;font face=&quot;Courier New&quot;&gt;&amp;lt;&amp;lt; Core API &amp;gt;&amp;gt;&lt;/font&gt;&lt;br&gt;&lt;div&gt;Moodle Webservices / External API&lt;/div&gt;" style="shape=process;whiteSpace=wrap;html=1;backgroundOutline=1;size=0.02564102564102564;fillColor=#f5f5f5;fontColor=#333333;strokeColor=#666666;" parent="zBMR9Xl9BZe3JkmsXcy5-1" vertex="1">
          <mxGeometry x="23.75" y="360" width="600" height="60" as="geometry" />
        </mxCell>
        <mxCell id="NRSCf0xzdUJ-CUg3j_1p-1" value="&lt;font face=&quot;Courier New&quot;&gt;&amp;lt;&amp;lt; Storage Driver &amp;gt;&amp;gt;&lt;/font&gt;&lt;div&gt;Moodledata Storage&lt;/div&gt;" style="shape=cylinder3;whiteSpace=wrap;html=1;boundedLbl=1;backgroundOutline=1;size=15;fillColor=#ffe6cc;strokeColor=#d79b00;shadow=1;" parent="zBMR9Xl9BZe3JkmsXcy5-1" vertex="1">
          <mxGeometry x="520" y="70" width="95" height="90" as="geometry" />
        </mxCell>
        <mxCell id="NRSCf0xzdUJ-CUg3j_1p-5" style="edgeStyle=orthogonalEdgeStyle;rounded=0;orthogonalLoop=1;jettySize=auto;html=1;" parent="zBMR9Xl9BZe3JkmsXcy5-1" target="NRSCf0xzdUJ-CUg3j_1p-3" edge="1">
          <mxGeometry relative="1" as="geometry">
            <mxPoint x="460" y="95" as="sourcePoint" />
            <Array as="points">
              <mxPoint x="460" y="95" />
              <mxPoint x="480" y="95" />
              <mxPoint x="480" y="50" />
              <mxPoint x="675" y="50" />
              <mxPoint x="675" y="100" />
            </Array>
            <mxPoint x="730" y="80" as="targetPoint" />
          </mxGeometry>
        </mxCell>
        <mxCell id="_6VHdj9FvXks-WedDbgJ-3" style="edgeStyle=orthogonalEdgeStyle;rounded=0;orthogonalLoop=1;jettySize=auto;html=1;" edge="1" parent="zBMR9Xl9BZe3JkmsXcy5-1" source="zBMR9Xl9BZe3JkmsXcy5-8" target="zBMR9Xl9BZe3JkmsXcy5-10">
          <mxGeometry relative="1" as="geometry" />
        </mxCell>
        <mxCell id="zBMR9Xl9BZe3JkmsXcy5-17" value="" style="edgeStyle=orthogonalEdgeStyle;rounded=0;orthogonalLoop=1;jettySize=auto;html=1;startArrow=classic;startFill=1;endArrow=none;endFill=1;" parent="zBMR9Xl9BZe3JkmsXcy5-1" source="zBMR9Xl9BZe3JkmsXcy5-9" edge="1">
          <mxGeometry relative="1" as="geometry">
            <Array as="points">
              <mxPoint x="114" y="180" />
              <mxPoint x="324" y="180" />
            </Array>
            <mxPoint x="324" y="180" as="targetPoint" />
          </mxGeometry>
        </mxCell>
        <mxCell id="zBMR9Xl9BZe3JkmsXcy5-5" value="&lt;span style=&quot;font-size: 18px;&quot;&gt;External Storage&lt;/span&gt;" style="swimlane;whiteSpace=wrap;html=1;startSize=30;collapsible=0;" parent="1" vertex="1">
          <mxGeometry x="720" y="20" width="260" height="540" as="geometry" />
        </mxCell>
        <mxCell id="zBMR9Xl9BZe3JkmsXcy5-31" value="&lt;font face=&quot;Courier New&quot;&gt;&amp;lt;&amp;lt; Storage Driver &amp;gt;&amp;gt;&lt;/font&gt;&lt;div&gt;Network Storage&lt;/div&gt;" style="shape=cylinder3;whiteSpace=wrap;html=1;boundedLbl=1;backgroundOutline=1;size=15;fillColor=#ffe6cc;strokeColor=#d79b00;shadow=1;" parent="zBMR9Xl9BZe3JkmsXcy5-5" vertex="1">
          <mxGeometry x="30" y="170" width="200" height="80" as="geometry" />
        </mxCell>
        <mxCell id="zBMR9Xl9BZe3JkmsXcy5-36" value="" style="group;shadow=1;glass=0;" parent="zBMR9Xl9BZe3JkmsXcy5-5" vertex="1" connectable="0">
          <mxGeometry x="30" y="280" width="200" height="130" as="geometry" />
        </mxCell>
        <mxCell id="zBMR9Xl9BZe3JkmsXcy5-33" value="" style="shape=document;whiteSpace=wrap;html=1;boundedLbl=1;fillColor=#ffe6cc;strokeColor=#d79b00;shadow=1;" parent="zBMR9Xl9BZe3JkmsXcy5-36" vertex="1">
          <mxGeometry x="15.384615384615387" width="184.6153846153846" height="115.55555555555554" as="geometry" />
        </mxCell>
        <mxCell id="zBMR9Xl9BZe3JkmsXcy5-34" value="" style="shape=document;whiteSpace=wrap;html=1;boundedLbl=1;fillColor=#ffe6cc;strokeColor=#d79b00;shadow=1;" parent="zBMR9Xl9BZe3JkmsXcy5-36" vertex="1">
          <mxGeometry x="7.692307692307693" y="7.222222222222221" width="184.6153846153846" height="115.55555555555554" as="geometry" />
        </mxCell>
        <mxCell id="zBMR9Xl9BZe3JkmsXcy5-35" value="&lt;font face=&quot;Courier New&quot;&gt;&amp;lt;&amp;lt; Storage Driver &amp;gt;&amp;gt;&lt;/font&gt;&lt;div&gt;Document Management&lt;br&gt;System&lt;/div&gt;" style="shape=document;whiteSpace=wrap;html=1;boundedLbl=1;fillColor=#ffe6cc;strokeColor=#d79b00;shadow=1;" parent="zBMR9Xl9BZe3JkmsXcy5-36" vertex="1">
          <mxGeometry y="14.444444444444443" width="184.6153846153846" height="115.55555555555554" as="geometry" />
        </mxCell>
        <mxCell id="NRSCf0xzdUJ-CUg3j_1p-3" value="&lt;font style=&quot;text-wrap: wrap;&quot; face=&quot;Courier New&quot;&gt;&amp;lt;&amp;lt; Storage Driver &amp;gt;&amp;gt;&lt;/font&gt;&lt;div style=&quot;text-wrap: wrap;&quot;&gt;File System Storage&lt;/div&gt;" style="sketch=0;pointerEvents=1;shadow=1;dashed=0;html=1;strokeColor=#d79b00;fillColor=#ffe6cc;labelPosition=center;verticalLabelPosition=bottom;verticalAlign=top;outlineConnect=0;align=center;shape=mxgraph.office.concepts.folder;spacingTop=-54;spacingLeft=0;whiteSpace=wrap;" parent="zBMR9Xl9BZe3JkmsXcy5-5" vertex="1">
          <mxGeometry x="30" y="60" width="200" height="80" as="geometry" />
        </mxCell>
        <mxCell id="NRSCf0xzdUJ-CUg3j_1p-7" value="&lt;font face=&quot;Courier New&quot;&gt;&amp;lt;&amp;lt; Storage Driver &amp;gt;&amp;gt;&lt;/font&gt;&lt;div&gt;Another Storage&lt;/div&gt;" style="shape=cylinder3;whiteSpace=wrap;html=1;boundedLbl=1;backgroundOutline=1;size=15;fillColor=#ffe6cc;strokeColor=#d79b00;dashed=1;opacity=70;textOpacity=70;" parent="zBMR9Xl9BZe3JkmsXcy5-5" vertex="1">
          <mxGeometry x="30" y="430" width="200" height="80" as="geometry" />
        </mxCell>
        <mxCell id="H9DcRYAXyD7V10C6q45s-12" value="&lt;font face=&quot;Courier New&quot;&gt;&amp;lt;&amp;lt; External Event&lt;br&gt;Connector &amp;gt;&amp;gt;&lt;/font&gt;&lt;div&gt;Student Record&lt;/div&gt;" style="sketch=0;pointerEvents=1;shadow=1;dashed=0;html=1;strokeColor=#d6b656;fillColor=#fff2cc;labelPosition=center;verticalLabelPosition=bottom;verticalAlign=top;outlineConnect=0;align=center;shape=mxgraph.office.concepts.folder;spacingTop=-54;spacingLeft=0;whiteSpace=wrap;" parent="zBMR9Xl9BZe3JkmsXcy5-5" vertex="1">
          <mxGeometry x="-980" y="60" width="200" height="80" as="geometry" />
        </mxCell>
        <mxCell id="zBMR9Xl9BZe3JkmsXcy5-42" style="edgeStyle=orthogonalEdgeStyle;rounded=0;orthogonalLoop=1;jettySize=auto;html=1;" parent="1" edge="1">
          <mxGeometry relative="1" as="geometry">
            <Array as="points">
              <mxPoint x="695" y="230" />
            </Array>
            <mxPoint x="695" y="130" as="sourcePoint" />
            <mxPoint x="750" y="230" as="targetPoint" />
          </mxGeometry>
        </mxCell>
        <mxCell id="zBMR9Xl9BZe3JkmsXcy5-43" style="edgeStyle=orthogonalEdgeStyle;rounded=0;orthogonalLoop=1;jettySize=auto;html=1;" parent="1" edge="1">
          <mxGeometry relative="1" as="geometry">
            <Array as="points">
              <mxPoint x="695" y="350" />
              <mxPoint x="750" y="350" />
            </Array>
            <mxPoint x="695" y="120" as="sourcePoint" />
            <mxPoint x="750" y="350" as="targetPoint" />
          </mxGeometry>
        </mxCell>
        <mxCell id="zBMR9Xl9BZe3JkmsXcy5-47" style="edgeStyle=orthogonalEdgeStyle;rounded=0;orthogonalLoop=1;jettySize=auto;html=1;" parent="1" edge="1">
          <mxGeometry relative="1" as="geometry">
            <mxPoint x="330" y="580" as="sourcePoint" />
            <mxPoint x="330" y="440" as="targetPoint" />
          </mxGeometry>
        </mxCell>
        <mxCell id="H9DcRYAXyD7V10C6q45s-21" value="&lt;span style=&quot;font-size: 18px;&quot;&gt;External Systems&lt;/span&gt;" style="swimlane;whiteSpace=wrap;html=1;startSize=30;collapsible=0;" parent="1" vertex="1">
          <mxGeometry x="-290" y="20" width="260" height="380" as="geometry" />
        </mxCell>
        <mxCell id="H9DcRYAXyD7V10C6q45s-32" style="edgeStyle=orthogonalEdgeStyle;rounded=0;orthogonalLoop=1;jettySize=auto;html=1;endArrow=none;endFill=0;dashed=1;startArrow=classic;startFill=1;strokeColor=#666666;" parent="H9DcRYAXyD7V10C6q45s-21" source="H9DcRYAXyD7V10C6q45s-28" edge="1">
          <mxGeometry relative="1" as="geometry">
            <mxPoint x="285" y="205" as="targetPoint" />
          </mxGeometry>
        </mxCell>
        <mxCell id="H9DcRYAXyD7V10C6q45s-28" value="&lt;font face=&quot;Courier New&quot;&gt;&amp;lt;&amp;lt; External Event&lt;br&gt;Connector &amp;gt;&amp;gt;&lt;/font&gt;&lt;div&gt;Another System&lt;/div&gt;" style="shape=cylinder3;whiteSpace=wrap;html=1;boundedLbl=1;backgroundOutline=1;size=15;fillColor=#fff2cc;strokeColor=#d6b656;dashed=1;opacity=70;textOpacity=70;" parent="H9DcRYAXyD7V10C6q45s-21" vertex="1">
          <mxGeometry x="30" y="270" width="200" height="80" as="geometry" />
        </mxCell>
        <mxCell id="H9DcRYAXyD7V10C6q45s-31" style="edgeStyle=orthogonalEdgeStyle;rounded=0;orthogonalLoop=1;jettySize=auto;html=1;endArrow=none;endFill=0;startArrow=classic;startFill=1;" parent="H9DcRYAXyD7V10C6q45s-21" source="H9DcRYAXyD7V10C6q45s-10" edge="1">
          <mxGeometry relative="1" as="geometry">
            <mxPoint x="285" y="95" as="targetPoint" />
            <Array as="points">
              <mxPoint x="285" y="205" />
              <mxPoint x="285" y="100" />
            </Array>
          </mxGeometry>
        </mxCell>
        <mxCell id="H9DcRYAXyD7V10C6q45s-10" value="&lt;font face=&quot;Courier New&quot;&gt;&amp;lt;&amp;lt; External Event&lt;br&gt;Connector &amp;gt;&amp;gt;&lt;/font&gt;&lt;div&gt;Campus Management System&lt;/div&gt;" style="shape=hexagon;perimeter=hexagonPerimeter2;whiteSpace=wrap;html=1;fixedSize=1;fillColor=#fff2cc;strokeColor=#d6b656;shadow=1;" parent="H9DcRYAXyD7V10C6q45s-21" vertex="1">
          <mxGeometry x="30" y="170" width="200" height="70" as="geometry" />
        </mxCell>
        <mxCell id="H9DcRYAXyD7V10C6q45s-30" style="edgeStyle=orthogonalEdgeStyle;rounded=0;orthogonalLoop=1;jettySize=auto;html=1;" parent="1" source="zBMR9Xl9BZe3JkmsXcy5-8" target="H9DcRYAXyD7V10C6q45s-12" edge="1">
          <mxGeometry relative="1" as="geometry">
            <mxPoint x="-40" y="120" as="targetPoint" />
            <Array as="points">
              <mxPoint x="-30" y="115" />
              <mxPoint x="-30" y="115" />
            </Array>
          </mxGeometry>
        </mxCell>
      </root>
    </mxGraphModel>
  </diagram>
</mxfile>
